<svg width="1492" height="848" viewBox="0 0 1492 848" fill="none" xmlns="http://www.w3.org/2000/svg">
<path d="M620.921 223.639L537.546 272.2L524.298 201.574L604.737 136.349L620.921 223.639ZM780.314 126.046L699.884 172.151L681.253 65.2341L761.675 0L780.314 126.046ZM885.274 218.257L798.954 247.671L780.314 126.536L862.702 81.4181L885.274 218.257Z" fill="#00AEEF"/>
<path d="M993.66 343.805L903.896 352.141L884.287 211.868L971.088 191.28L993.66 343.805ZM821.517 364.402L734.698 381.564L718.025 276.613L801.899 241.3L821.517 364.402Z" fill="#00AEEF"/>
<path d="M927.936 488.962L838.199 486.515L820.04 363.414L906.832 348.707L927.936 488.962ZM718.515 277.574L635.629 310.921L620.432 222.661L701.352 171.146L718.515 277.574ZM652.311 400.177L565.99 415.89L551.274 345.264L636.127 312.398L652.311 400.177Z" fill="#00AEEF"/>
<path d="M753.827 487.974H666.528L650.834 398.718L736.176 382.045L753.827 487.974ZM580.706 486.996L491.939 483.072L479.181 427.171L565.501 414.413L580.706 486.996ZM553.721 345.264L469.367 375.176L455.149 316.321L538.035 272.672L553.721 345.264Z" fill="#00AEEF"/>
<path d="M481.147 429.618L393.848 435.01L383.055 392.837L468.878 374.687L481.147 429.618Z" fill="#00AEEF"/>
<path d="M311.567 540.69H331.043V579.117H331.425C333.365 575.763 335.429 572.667 337.36 569.57L357.094 540.69H381.214L352.449 577.702L382.762 627.607H359.807L338.525 590.07L331.043 599.225V627.589H311.567V540.69ZM511.13 590.861H479.145V611.485H514.867V627.616H459.411V540.681H513.061V556.812H479.145V574.855H511.13V590.861ZM596.935 541.838C603.252 540.815 612.674 540.041 623.119 540.041C636.02 540.041 645.042 541.98 651.234 546.883C656.394 551.02 659.224 557.07 659.224 565.069C659.224 576.154 651.359 583.779 643.876 586.475V586.858C649.935 589.296 653.289 595.123 655.487 603.113C658.192 612.918 660.896 624.261 662.578 627.616H642.461C641.038 625.169 638.983 618.078 636.403 607.375C634.08 596.538 630.335 593.566 622.345 593.451H616.411V627.633H596.935V541.838ZM616.411 579.251H624.151C633.956 579.251 639.757 574.348 639.757 566.741C639.757 558.743 634.338 554.73 625.308 554.614C620.53 554.614 617.825 555.006 616.411 555.264V579.251ZM763.472 605.302L757.288 627.616H736.905L763.472 540.681H789.256L816.206 627.616H795.057L788.349 605.302H763.472ZM785.528 590.603L780.127 572.168C778.579 567.008 777.031 560.549 775.741 555.397H775.492C774.193 560.549 772.921 567.124 771.497 572.168L766.337 590.603H785.528ZM896.494 540.69H916.228V611.102H950.793V627.607H896.494V540.69ZM1052.08 605.302L1045.9 627.616H1025.51L1052.08 540.681H1077.86L1104.81 627.616H1083.66L1076.96 605.302H1052.08ZM1074.12 590.603L1068.71 572.168C1067.16 567.008 1065.61 560.549 1064.33 555.397H1064.07C1062.77 560.549 1061.5 567.124 1060.08 572.168L1054.92 590.603H1074.12Z" fill="#0B9444"/>
<path d="M43.6016 774.49C50.4613 778.005 60.9956 781.51 71.8679 781.51C83.5766 781.51 89.7602 776.661 89.7602 769.303C89.7602 762.274 84.4041 758.262 70.8626 753.413C52.134 746.909 39.9182 736.535 39.9182 720.137C39.9182 700.902 55.9776 686.195 82.5623 686.195C95.2764 686.195 104.636 688.873 111.327 691.889L105.642 712.468C98.2925 708.912 90.2285 707.08 82.0641 707.112C71.0227 707.112 65.6666 712.121 65.6666 717.975C65.6666 725.182 72.0281 728.349 86.575 733.875C106.478 741.224 115.847 751.598 115.847 767.479C115.847 786.377 101.3 802.445 70.3554 802.445C57.4812 802.445 44.7671 799.109 38.4146 795.585L43.6016 774.49ZM152.957 709.425H122.68V688.018H209.32V709.425H178.545V800.746H152.957V709.425ZM235.22 771.812L227.186 800.746H200.761L235.211 688.018H268.665L303.63 800.746H276.2L267.499 771.812H235.22ZM263.816 752.728L256.787 728.812C254.776 722.121 252.774 713.767 251.102 707.076H250.763C249.091 713.767 247.418 722.299 245.576 728.812L238.886 752.728H263.816ZM316.798 689.522C324.993 688.196 337.2 687.164 350.75 687.164C367.477 687.164 379.176 689.682 387.211 696.044C393.901 701.4 397.585 709.238 397.585 719.612C397.585 733.99 387.38 743.866 377.682 747.372V747.879C385.547 751.055 389.889 758.582 392.736 768.947C396.25 781.679 399.764 796.386 401.935 800.728H375.84C373.998 797.561 371.329 788.343 367.984 774.472C364.976 760.424 360.128 756.571 349.753 756.411H342.066V800.737H316.798V689.522ZM342.048 738.021H352.084C364.799 738.021 372.317 731.668 372.317 721.801C372.317 711.427 365.288 706.249 353.588 706.071C347.405 706.071 343.89 706.578 342.048 706.916V738.021ZM435.842 709.425H405.565V688.018H492.206V709.425H461.431V800.746H435.842V709.425ZM529.298 688.018V752.906C529.298 772.319 536.656 782.177 549.7 782.177C563.081 782.177 570.439 772.8 570.439 752.906V688.018H595.858V751.233C595.858 786.021 578.295 802.579 548.854 802.579C520.428 802.579 503.701 786.839 503.701 750.886V688.018H529.298ZM616.064 689.522C623.92 688.196 634.97 687.164 650.522 687.164C666.244 687.164 677.445 690.189 684.981 696.213C692.17 701.907 697.028 711.249 697.028 722.308C697.028 733.341 693.345 742.709 686.654 749.071C677.952 757.274 665.078 760.94 650.024 760.94C646.679 760.94 643.672 760.771 641.323 760.441V800.746H616.073L616.064 689.522ZM641.314 740.699C643.494 741.215 646.163 741.366 649.846 741.366C663.388 741.366 671.76 734.506 671.76 722.975C671.76 712.601 664.562 706.427 651.857 706.427C646.67 706.427 643.156 706.934 641.314 707.414V740.699ZM838.627 757.594C838.002 742.154 837.667 726.702 837.621 711.249H837.114C833.476 725.956 829.291 740.521 824.569 754.916L810.858 798.886H790.964L778.918 755.237C774.871 740.731 771.466 726.055 768.713 711.249H768.374C767.716 726.472 767.209 743.866 766.355 757.924L764.371 800.746H740.775L747.973 688.018H781.916L792.948 725.645C796.472 738.697 799.986 752.737 802.486 765.949H802.993C806.17 752.897 810.013 738.012 813.697 725.476L825.743 688.01H859.01L865.194 800.746H840.273L838.627 757.594ZM908.487 688.018V800.746H882.89V688.018H908.487ZM929.547 774.49C936.398 778.005 946.941 781.51 957.804 781.51C969.513 781.51 975.705 776.661 975.705 769.303C975.705 762.274 970.349 758.262 956.799 753.413C938.079 746.909 925.863 736.535 925.863 720.137C925.863 700.902 941.923 686.195 968.508 686.195C981.23 686.195 990.59 688.873 997.281 691.889L991.569 712.468C984.225 708.907 976.162 707.074 968 707.112C956.968 707.112 951.612 712.121 951.612 717.975C951.612 725.182 957.973 728.349 972.52 733.875C992.432 741.224 1001.8 751.598 1001.8 767.479C1001.8 786.377 987.236 802.445 956.309 802.445C943.417 802.445 930.712 799.109 924.351 795.585L929.547 774.49ZM1017.98 774.49C1024.84 778.005 1035.38 781.51 1046.26 781.51C1057.95 781.51 1064.17 776.661 1064.17 769.303C1064.17 762.274 1058.8 758.262 1045.26 753.413C1026.54 746.909 1014.31 736.535 1014.31 720.137C1014.31 700.902 1030.38 686.195 1056.97 686.195C1069.69 686.195 1079.04 688.873 1085.73 691.889L1080.04 712.468C1075.52 710.297 1067.5 707.112 1056.47 707.112C1045.43 707.112 1040.08 712.121 1040.08 717.975C1040.08 725.182 1046.42 728.349 1060.98 733.875C1080.88 741.224 1090.25 751.598 1090.25 767.479C1090.25 786.377 1075.7 802.445 1044.76 802.445C1031.89 802.445 1019.16 799.109 1012.82 795.585L1017.98 774.49ZM1131.17 688.018V800.746H1105.58V688.018H1131.17ZM1254.59 743.208C1254.59 780.166 1232.16 802.587 1199.21 802.587C1165.76 802.587 1146.19 777.328 1146.19 745.218C1146.19 711.427 1167.79 686.177 1201.05 686.177C1235.68 686.177 1254.59 712.103 1254.59 743.208ZM1173.14 744.711C1173.14 766.785 1183.5 782.337 1200.56 782.337C1217.81 782.337 1227.66 765.94 1227.66 744.026C1227.66 723.794 1217.96 706.4 1200.4 706.4C1183.17 706.4 1173.14 722.806 1173.14 744.711ZM1269.43 800.746V688.018H1299.22L1322.62 729.328C1329.59 741.795 1335.74 754.706 1341.02 767.977H1341.53C1339.86 753.084 1339.36 737.86 1339.36 720.983V688.027H1362.77V800.755H1336.01L1311.92 757.256C1305.23 745.21 1297.88 730.672 1292.36 717.459L1291.85 717.628C1292.52 732.513 1292.85 748.404 1292.85 766.794V800.746H1269.43Z" fill="#231F20"/>
<path d="M1426.65 762.897C1447.83 762.897 1465.01 745.725 1465.01 724.541C1465.01 703.358 1447.83 686.186 1426.65 686.186C1405.47 686.186 1388.29 703.358 1388.29 724.541C1388.29 745.725 1405.47 762.897 1426.65 762.897Z" stroke="black" stroke-width="5.16036" stroke-miterlimit="10"/>
<path d="M1412.77 745.299V707.085H1429.71C1433.12 707.085 1435.71 707.432 1437.48 708.108C1439.25 708.802 1440.66 710.012 1441.73 711.747C1442.8 713.482 1443.32 715.404 1443.32 717.504C1443.32 720.217 1442.44 722.504 1440.69 724.364C1438.94 726.223 1436.22 727.406 1432.56 727.905C1433.89 728.545 1434.92 729.186 1435.61 729.809C1437.09 731.161 1438.48 732.86 1439.81 734.889L1446.45 745.29H1440.09L1435.04 737.336C1433.56 735.04 1432.34 733.287 1431.39 732.068C1430.44 730.85 1429.58 730.004 1428.83 729.515C1428.12 729.049 1427.34 728.706 1426.52 728.501C1425.59 728.349 1424.65 728.287 1423.7 728.314H1417.84V745.281H1412.77V745.299ZM1417.82 723.945H1428.7C1431.01 723.945 1432.82 723.714 1434.11 723.225C1435.34 722.816 1436.38 722.007 1437.09 720.929C1437.75 719.912 1438.11 718.721 1438.1 717.504C1438.1 715.698 1437.44 714.212 1436.13 713.046C1434.81 711.881 1432.74 711.302 1429.91 711.302H1417.82V723.945Z" fill="black"/>
</svg>
